<?xml version="1.0" encoding="UTF-8" standalone="no"?>
<svg
   id="Layer_1"
   viewBox="0 0 24 24"
   data-name="Layer 1"
   version="1.1"
   xmlns="http://www.w3.org/2000/svg"
   xmlns:svg="http://www.w3.org/2000/svg">
  <defs
     id="defs1" />
  <path
     style="fill:#000000;fill-opacity:1"
     d="M 20,10 C 16.686,10 14,7.314 14,4 14,3.659 14.035,3.326 14.09,3 H 5.242 L 5.201,2.648 C 5.022,1.138 3.741,0 2.222,0 H 1 C 0.447,0 0,0.448 0,1 0,1.552 0.447,2 1,2 h 1.222 c 0.507,0 0.934,0.38 0.993,0.883 l 1.376,11.702 c 0.297,2.517 2.432,4.416 4.966,4.416 H 19 c 0.553,0 1,-0.448 1,-1 0,-0.552 -0.447,-1 -1,-1 H 9.557 c -1.292,0 -2.404,-0.826 -2.82,-2 h 11.424 c 2.375,0 4.437,-1.69 4.902,-4.019 L 23.483,8.88 C 22.5,9.583 21.3,10.001 20,10.001 Z"
     id="path4" />
  <path
     style="fill:#000000;fill-opacity:1"
     d="m 17,20 c -1.105,0 -2,0.895 -2,2 0,1.105 0.895,2 2,2 1.105,0 2,-0.895 2,-2 0,-1.105 -0.895,-2 -2,-2 z"
     id="path3" />
  <path
     style="fill:#000000;fill-opacity:1"
     d="m 7,20 c -1.105,0 -2,0.895 -2,2 0,1.105 0.895,2 2,2 1.105,0 2,-0.895 2,-2 0,-1.105 -0.895,-2 -2,-2 z"
     id="path2" />
  <path
     style="fill:#ff0000;fill-opacity:1"
     d="m 20,8 c -2.206,0 -4,-1.794 -4,-4 0,-2.206 1.794,-4 4,-4 2.206,0 4,1.794 4,4 0,2.206 -1.794,4 -4,4 z"
     id="path1" />
</svg>
